<svg width="196.48203125px" height="53.6px" xmlns="http://www.w3.org/2000/svg" viewBox="151.758984375 48.2 196.48203125 53.6" style="background: rgb(253, 253, 253);" preserveAspectRatio="xMidYMid"><defs><filter id="editing-extrusion" x="-100%" y="-100%" width="300%" height="300%"><feFlood result="color1" flood-color="#ffffff"></feFlood><feConvolveMatrix order="5,5" divisor="1" kernelMatrix="1 0 0 0 0 0 1 0 0 0 0 0 1 0 0 0 0 0 1 0 0 0 0 0 1" in="SourceAlpha" result="extrude"></feConvolveMatrix><feComposite in="color1" in2="extrude" result="comp-extrude" operator="in"></feComposite><feOffset dx="2.5" dy="2.5" in="comp-extrude" result="offset-extrude"></feOffset><feMerge><feMergeNode in="offset-extrude"></feMergeNode><feMergeNode in="SourceGraphic"></feMergeNode></feMerge></filter></defs><g filter="url(#editing-extrusion)"><g transform="translate(185.04552578926086, 81.77500247955322)"><path d="M3.40-11.99L3.40-7.65L5.56-7.65L5.56-7.65Q6.35-7.65 6.90-7.81L6.90-7.81L6.90-7.81Q7.45-7.96 7.78-8.24L7.78-8.24L7.78-8.24Q8.12-8.52 8.27-8.93L8.27-8.93L8.27-8.93Q8.41-9.35 8.41-9.91L8.41-9.91L8.41-9.91Q8.41-10.56 8.23-10.94L8.23-10.94L8.23-10.94Q8.05-11.33 7.66-11.55L7.66-11.55L7.66-11.55Q7.26-11.78 6.64-11.88L6.64-11.88L6.64-11.88Q6.02-11.99 5.15-11.99L5.15-11.99L3.40-11.99ZM9.06-3.87L9.06-3.87L9.06-3.87Q9.06-4.65 8.86-5.14L8.86-5.14L8.86-5.14Q8.66-5.64 8.23-5.94L8.23-5.94L8.23-5.94Q7.80-6.23 7.15-6.35L7.15-6.35L7.15-6.35Q6.50-6.48 5.61-6.48L5.61-6.48L3.40-6.48L3.40-1.34L5.64-1.34L5.64-1.34Q6.48-1.34 7.13-1.44L7.13-1.44L7.13-1.44Q7.77-1.54 8.20-1.80L8.20-1.80L8.20-1.80Q8.63-2.07 8.85-2.56L8.85-2.56L8.85-2.56Q9.06-3.05 9.06-3.87ZM10.72-3.85L10.72-3.85L10.72-3.85Q10.72-1.86 9.56-0.93L9.56-0.93L9.56-0.93Q8.41 0 6.09 0L6.09 0L1.72 0L1.72-13.33L5.38-13.33L5.38-13.33Q6.67-13.33 7.57-13.14L7.57-13.14L7.57-13.14Q8.47-12.94 9.03-12.52L9.03-12.52L9.03-12.52Q9.58-12.11 9.83-11.45L9.83-11.45L9.83-11.45Q10.08-10.80 10.08-9.83L10.08-9.83L10.08-9.83Q10.08-9.35 9.96-8.97L9.96-8.97L9.96-8.97Q9.83-8.58 9.63-8.29L9.63-8.29L9.63-8.29Q9.42-8.01 9.16-7.79L9.16-7.79L9.16-7.79Q8.91-7.57 8.64-7.44L8.64-7.44L8.64-7.44Q8.38-7.31 8.13-7.25L8.13-7.25L8.13-7.25Q7.89-7.18 7.71-7.16L7.71-7.16L7.71-7.16Q8.55-7.10 9.21-6.73L9.21-6.73L9.21-6.73Q9.49-6.57 9.76-6.33L9.76-6.33L9.76-6.33Q10.04-6.09 10.25-5.75L10.25-5.75L10.25-5.75Q10.46-5.41 10.59-4.94L10.59-4.94L10.59-4.94Q10.72-4.48 10.72-3.85ZM16.80-8.41L16.80-8.41L16.80-8.41Q16.37-8.41 15.96-8.27L15.96-8.27L15.96-8.27Q15.56-8.14 15.23-7.82L15.23-7.82L15.23-7.82Q14.91-7.51 14.69-6.99L14.69-6.99L14.69-6.99Q14.47-6.48 14.42-5.64L14.42-5.64L18.81-5.64L18.81-5.64Q18.81-5.79 18.81-5.87L18.81-5.87L18.81-5.87Q18.82-5.95 18.82-6.02L18.82-6.02L18.82-6.02Q18.82-6.10 18.82-6.16L18.82-6.16L18.82-6.16Q18.81-6.75 18.65-7.18L18.65-7.18L18.65-7.18Q18.49-7.60 18.22-7.87L18.22-7.87L18.22-7.87Q17.95-8.15 17.59-8.28L17.59-8.28L17.59-8.28Q17.23-8.41 16.80-8.41ZM19.91-1.52L19.73-0.28L19.73-0.28Q19.40-0.16 18.99-0.06L18.99-0.06L18.99-0.06Q18.64 0.03 18.17 0.10L18.17 0.10L18.17 0.10Q17.69 0.17 17.13 0.17L17.13 0.17L17.13 0.17Q14.88 0.17 13.75-1.04L13.75-1.04L13.75-1.04Q12.62-2.25 12.62-4.65L12.62-4.65L12.62-4.65Q12.62-5.99 12.93-6.93L12.93-6.93L12.93-6.93Q13.25-7.86 13.80-8.47L13.80-8.47L13.80-8.47Q14.36-9.08 15.12-9.38L15.12-9.38L15.12-9.38Q15.88-9.68 16.76-9.68L16.76-9.68L16.76-9.68Q17.64-9.68 18.29-9.40L18.29-9.40L18.29-9.40Q18.95-9.12 19.39-8.66L19.39-8.66L19.39-8.66Q19.83-8.20 20.05-7.61L20.05-7.61L20.05-7.61Q20.28-7.01 20.30-6.37L20.30-6.37L20.30-6.37Q20.30-6.18 20.28-5.89L20.28-5.89L20.28-5.89Q20.27-5.59 20.25-5.35L20.25-5.35L20.25-5.35Q20.22-5.10 20.20-4.90L20.20-4.90L20.20-4.90Q20.18-4.69 20.15-4.60L20.15-4.60L14.39-4.60L14.39-4.27L14.39-4.27Q14.39-3.41 14.59-2.79L14.59-2.79L14.59-2.79Q14.80-2.17 15.17-1.80L15.17-1.80L15.17-1.80Q15.55-1.44 16.08-1.28L16.08-1.28L16.08-1.28Q16.61-1.13 17.25-1.13L17.25-1.13L17.25-1.13Q17.78-1.13 18.25-1.19L18.25-1.19L18.25-1.19Q18.73-1.25 19.10-1.33L19.10-1.33L19.10-1.33Q19.54-1.41 19.91-1.52L19.91-1.52ZM25.32 0.17L25.32 0.17L25.32 0.17Q24.69 0.17 24.25 0.01L24.25 0.01L24.25 0.01Q23.81-0.15 23.55-0.53L23.55-0.53L23.55-0.53Q23.28-0.91 23.15-1.54L23.15-1.54L23.15-1.54Q23.03-2.18 23.03-3.13L23.03-3.13L23.03-8.60L21.71-8.60L21.71-9.56L23.09-9.56L23.33-12.48L24.71-12.75L24.71-9.56L27.09-9.56L27.09-8.60L24.74-8.60L24.74-2.76L24.74-2.76Q24.74-2.26 24.78-1.93L24.78-1.93L24.78-1.93Q24.81-1.60 24.91-1.41L24.91-1.41L24.91-1.41Q25.02-1.22 25.22-1.14L25.22-1.14L25.22-1.14Q25.42-1.06 25.76-1.06L25.76-1.06L25.76-1.06Q26.01-1.06 26.25-1.08L26.25-1.08L26.25-1.08Q26.48-1.10 26.66-1.14L26.66-1.14L26.66-1.14Q26.88-1.18 27.05-1.22L27.05-1.22L26.90-0.03L26.90-0.03Q26.74 0.04 26.50 0.07L26.50 0.07L26.50 0.07Q26.29 0.11 26.00 0.14L26.00 0.14L26.00 0.14Q25.71 0.17 25.32 0.17ZM31.62 0.17L31.62 0.17L31.62 0.17Q30.99 0.17 30.55 0.01L30.55 0.01L30.55 0.01Q30.11-0.15 29.85-0.53L29.85-0.53L29.85-0.53Q29.58-0.91 29.45-1.54L29.45-1.54L29.45-1.54Q29.33-2.18 29.33-3.13L29.33-3.13L29.33-8.60L28.01-8.60L28.01-9.56L29.39-9.56L29.63-12.48L31.01-12.75L31.01-9.56L33.39-9.56L33.39-8.60L31.04-8.60L31.04-2.76L31.04-2.76Q31.04-2.26 31.07-1.93L31.07-1.93L31.07-1.93Q31.11-1.60 31.21-1.41L31.21-1.41L31.21-1.41Q31.32-1.22 31.52-1.14L31.52-1.14L31.52-1.14Q31.72-1.06 32.06-1.06L32.06-1.06L32.06-1.06Q32.31-1.06 32.54-1.08L32.54-1.08L32.54-1.08Q32.78-1.10 32.96-1.14L32.96-1.14L32.96-1.14Q33.18-1.18 33.35-1.22L33.35-1.22L33.20-0.03L33.20-0.03Q33.04 0.04 32.80 0.07L32.80 0.07L32.80 0.07Q32.59 0.11 32.30 0.14L32.30 0.14L32.30 0.14Q32.01 0.17 31.62 0.17ZM38.96-8.41L38.96-8.41L38.96-8.41Q38.52-8.41 38.12-8.27L38.12-8.27L38.12-8.27Q37.71-8.14 37.39-7.82L37.39-7.82L37.39-7.82Q37.06-7.51 36.84-6.99L36.84-6.99L36.84-6.99Q36.63-6.48 36.57-5.64L36.57-5.64L40.96-5.64L40.96-5.64Q40.96-5.79 40.97-5.87L40.97-5.87L40.97-5.87Q40.98-5.95 40.98-6.02L40.98-6.02L40.98-6.02Q40.98-6.10 40.98-6.16L40.98-6.16L40.98-6.16Q40.96-6.75 40.80-7.18L40.80-7.18L40.80-7.18Q40.64-7.60 40.38-7.87L40.38-7.87L40.38-7.87Q40.11-8.15 39.74-8.28L39.74-8.28L39.74-8.28Q39.38-8.41 38.96-8.41ZM42.06-1.52L41.89-0.28L41.89-0.28Q41.55-0.16 41.15-0.06L41.15-0.06L41.15-0.06Q40.79 0.03 40.32 0.10L40.32 0.10L40.32 0.10Q39.85 0.17 39.28 0.17L39.28 0.17L39.28 0.17Q37.04 0.17 35.90-1.04L35.90-1.04L35.90-1.04Q34.77-2.25 34.77-4.65L34.77-4.65L34.77-4.65Q34.77-5.99 35.09-6.93L35.09-6.93L35.09-6.93Q35.40-7.86 35.96-8.47L35.96-8.47L35.96-8.47Q36.52-9.08 37.28-9.38L37.28-9.38L37.28-9.38Q38.04-9.68 38.92-9.68L38.92-9.68L38.92-9.68Q39.79-9.68 40.45-9.40L40.45-9.40L40.45-9.40Q41.11-9.12 41.54-8.66L41.54-8.66L41.54-8.66Q41.98-8.20 42.21-7.61L42.21-7.61L42.21-7.61Q42.43-7.01 42.45-6.37L42.45-6.37L42.45-6.37Q42.45-6.18 42.44-5.89L42.44-5.89L42.44-5.89Q42.43-5.59 42.40-5.35L42.40-5.35L42.40-5.35Q42.38-5.10 42.36-4.90L42.36-4.90L42.36-4.90Q42.33-4.69 42.30-4.60L42.30-4.60L36.54-4.60L36.54-4.27L36.54-4.27Q36.54-3.41 36.75-2.79L36.75-2.79L36.75-2.79Q36.95-2.17 37.33-1.80L37.33-1.80L37.33-1.80Q37.70-1.44 38.23-1.28L38.23-1.28L38.23-1.28Q38.76-1.13 39.40-1.13L39.40-1.13L39.40-1.13Q39.93-1.13 40.41-1.19L40.41-1.19L40.41-1.19Q40.89-1.25 41.26-1.33L41.26-1.33L41.26-1.33Q41.69-1.41 42.06-1.52L42.06-1.52ZM48.90-9.68L48.90-9.68L48.90-9.68Q49.09-9.68 49.26-9.64L49.26-9.64L49.26-9.64Q49.44-9.61 49.58-9.57L49.58-9.57L49.58-9.57Q49.75-9.53 49.88-9.47L49.88-9.47L49.68-8.15L49.68-8.15Q49.64-8.17 49.55-8.21L49.55-8.21L49.55-8.21Q49.48-8.23 49.34-8.25L49.34-8.25L49.34-8.25Q49.20-8.28 48.98-8.28L48.98-8.28L48.98-8.28Q48.45-8.28 48.00-8.14L48.00-8.14L48.00-8.14Q47.56-8.00 47.23-7.84L47.23-7.84L47.23-7.84Q46.85-7.65 46.54-7.41L46.54-7.41L46.54 0L44.82 0L44.82-9.58L46.02-9.68L46.34-8.51L46.34-8.51Q46.88-9.06 47.54-9.37L47.54-9.37L47.54-9.37Q48.20-9.68 48.90-9.68ZM53.61-6.23L53.61 0L51.90 0L51.90-13.33L59.63-13.33L59.41-11.99L53.61-11.99L53.61-7.61L58.76-7.61L58.76-6.23L53.61-6.23ZM69.00-9.56L69.00 0L67.76 0.10L67.53-1.09L67.53-1.09Q67.17-0.74 66.67-0.46L66.67-0.46L66.67-0.46Q66.24-0.22 65.63-0.03L65.63-0.03L65.63-0.03Q65.02 0.17 64.24 0.17L64.24 0.17L64.24 0.17Q62.62 0.17 61.88-0.86L61.88-0.86L61.88-0.86Q61.13-1.88 61.13-4.06L61.13-4.06L61.13-9.56L62.84-9.56L62.84-4.13L62.84-4.13Q62.84-3.32 62.92-2.75L62.92-2.75L62.92-2.75Q63.01-2.18 63.22-1.82L63.22-1.82L63.22-1.82Q63.43-1.47 63.78-1.30L63.78-1.30L63.78-1.30Q64.13-1.13 64.64-1.13L64.64-1.13L64.64-1.13Q65.22-1.13 65.71-1.27L65.71-1.27L65.71-1.27Q66.19-1.40 66.55-1.57L66.55-1.57L66.55-1.57Q66.96-1.76 67.29-2.01L67.29-2.01L67.29-9.56L69.00-9.56ZM74.58 0.17L74.58 0.17L74.58 0.17Q73.95 0.17 73.51 0.01L73.51 0.01L73.51 0.01Q73.08-0.15 72.81-0.53L72.81-0.53L72.81-0.53Q72.54-0.91 72.41-1.54L72.41-1.54L72.41-1.54Q72.29-2.18 72.29-3.13L72.29-3.13L72.29-8.60L70.97-8.60L70.97-9.56L72.35-9.56L72.60-12.48L73.98-12.75L73.98-9.56L76.35-9.56L76.35-8.60L74.01-8.60L74.01-2.76L74.01-2.76Q74.01-2.26 74.04-1.93L74.04-1.93L74.04-1.93Q74.07-1.60 74.18-1.41L74.18-1.41L74.18-1.41Q74.28-1.22 74.48-1.14L74.48-1.14L74.48-1.14Q74.68-1.06 75.03-1.06L75.03-1.06L75.03-1.06Q75.28-1.06 75.51-1.08L75.51-1.08L75.51-1.08Q75.74-1.10 75.93-1.14L75.93-1.14L75.93-1.14Q76.14-1.18 76.32-1.22L76.32-1.22L76.17-0.03L76.17-0.03Q76 0.04 75.76 0.07L75.76 0.07L75.76 0.07Q75.55 0.11 75.26 0.14L75.26 0.14L75.26 0.14Q74.97 0.17 74.58 0.17ZM86.02-9.56L86.02 0L84.78 0.10L84.54-1.09L84.54-1.09Q84.18-0.74 83.68-0.46L83.68-0.46L83.68-0.46Q83.25-0.22 82.65-0.03L82.65-0.03L82.65-0.03Q82.04 0.17 81.25 0.17L81.25 0.17L81.25 0.17Q79.64 0.17 78.89-0.86L78.89-0.86L78.89-0.86Q78.14-1.88 78.14-4.06L78.14-4.06L78.14-9.56L79.85-9.56L79.85-4.13L79.85-4.13Q79.85-3.32 79.94-2.75L79.94-2.75L79.94-2.75Q80.03-2.18 80.24-1.82L80.24-1.82L80.24-1.82Q80.44-1.47 80.79-1.30L80.79-1.30L80.79-1.30Q81.14-1.13 81.65-1.13L81.65-1.13L81.65-1.13Q82.23-1.13 82.72-1.27L82.72-1.27L82.72-1.27Q83.21-1.40 83.56-1.57L83.56-1.57L83.56-1.57Q83.98-1.76 84.30-2.01L84.30-2.01L84.30-9.56L86.02-9.56ZM93.02-9.68L93.02-9.68L93.02-9.68Q93.21-9.68 93.39-9.64L93.39-9.64L93.39-9.64Q93.56-9.61 93.70-9.57L93.70-9.57L93.70-9.57Q93.87-9.53 94.01-9.47L94.01-9.47L93.80-8.15L93.80-8.15Q93.77-8.17 93.67-8.21L93.67-8.21L93.67-8.21Q93.60-8.23 93.46-8.25L93.46-8.25L93.46-8.25Q93.32-8.28 93.10-8.28L93.10-8.28L93.10-8.28Q92.57-8.28 92.12-8.14L92.12-8.14L92.12-8.14Q91.68-8.00 91.35-7.84L91.35-7.84L91.35-7.84Q90.97-7.65 90.66-7.41L90.66-7.41L90.66 0L88.94 0L88.94-9.58L90.14-9.68L90.46-8.51L90.46-8.51Q91.00-9.06 91.66-9.37L91.66-9.37L91.66-9.37Q92.32-9.68 93.02-9.68ZM99.37-8.41L99.37-8.41L99.37-8.41Q98.93-8.41 98.53-8.27L98.53-8.27L98.53-8.27Q98.13-8.14 97.80-7.82L97.80-7.82L97.80-7.82Q97.48-7.51 97.26-6.99L97.26-6.99L97.26-6.99Q97.04-6.48 96.99-5.64L96.99-5.64L101.37-5.64L101.37-5.64Q101.37-5.79 101.38-5.87L101.38-5.87L101.38-5.87Q101.39-5.95 101.39-6.02L101.39-6.02L101.39-6.02Q101.39-6.10 101.39-6.16L101.39-6.16L101.39-6.16Q101.37-6.75 101.22-7.18L101.22-7.18L101.22-7.18Q101.06-7.60 100.79-7.87L100.79-7.87L100.79-7.87Q100.52-8.15 100.16-8.28L100.16-8.28L100.16-8.28Q99.80-8.41 99.37-8.41ZM102.48-1.52L102.30-0.28L102.30-0.28Q101.97-0.16 101.56-0.06L101.56-0.06L101.56-0.06Q101.21 0.03 100.73 0.10L100.73 0.10L100.73 0.10Q100.26 0.17 99.69 0.17L99.69 0.17L99.69 0.17Q97.45 0.17 96.32-1.04L96.32-1.04L96.32-1.04Q95.19-2.25 95.19-4.65L95.19-4.65L95.19-4.65Q95.19-5.99 95.50-6.93L95.50-6.93L95.50-6.93Q95.82-7.86 96.37-8.47L96.37-8.47L96.37-8.47Q96.93-9.08 97.69-9.38L97.69-9.38L97.69-9.38Q98.45-9.68 99.33-9.68L99.33-9.68L99.33-9.68Q100.20-9.68 100.86-9.40L100.86-9.40L100.86-9.40Q101.52-9.12 101.96-8.66L101.96-8.66L101.96-8.66Q102.39-8.20 102.62-7.61L102.62-7.61L102.62-7.61Q102.85-7.01 102.87-6.37L102.87-6.37L102.87-6.37Q102.87-6.18 102.85-5.89L102.85-5.89L102.85-5.89Q102.84-5.59 102.82-5.35L102.82-5.35L102.82-5.35Q102.79-5.10 102.77-4.90L102.77-4.90L102.77-4.90Q102.75-4.69 102.72-4.60L102.72-4.60L96.96-4.60L96.96-4.27L96.96-4.27Q96.96-3.41 97.16-2.79L97.16-2.79L97.16-2.79Q97.37-2.17 97.74-1.80L97.74-1.80L97.74-1.80Q98.12-1.44 98.65-1.28L98.65-1.28L98.65-1.28Q99.17-1.13 99.81-1.13L99.81-1.13L99.81-1.13Q100.34-1.13 100.82-1.19L100.82-1.19L100.82-1.19Q101.30-1.25 101.67-1.33L101.67-1.33L101.67-1.33Q102.11-1.41 102.48-1.52L102.48-1.52ZM110.45-1.18L110.45-1.18L110.45-1.18Q111.26-1.18 111.88-1.35L111.88-1.35L111.88-1.35Q112.49-1.53 112.90-1.93L112.90-1.93L112.90-1.93Q113.30-2.33 113.51-3.02L113.51-3.02L113.51-3.02Q113.72-3.72 113.72-4.76L113.72-4.76L113.72-13.33L115.48-13.33L115.48-4.64L115.48-4.64Q115.48-3.20 115.11-2.26L115.11-2.26L115.11-2.26Q114.73-1.33 114.06-0.77L114.06-0.77L114.06-0.77Q113.39-0.22 112.46 0L112.46 0L112.46 0Q111.54 0.22 110.46 0.22L110.46 0.22L110.46 0.22Q109.33 0.22 108.40-0.00L108.40-0.00L108.40-0.00Q107.46-0.23 106.79-0.79L106.79-0.79L106.79-0.79Q106.11-1.35 105.74-2.29L105.74-2.29L105.74-2.29Q105.37-3.23 105.37-4.65L105.37-4.65L105.37-13.33L107.14-13.33L107.14-4.76L107.14-4.76Q107.14-3.72 107.33-3.02L107.33-3.02L107.33-3.02Q107.52-2.33 107.93-1.93L107.93-1.93L107.93-1.93Q108.33-1.53 108.96-1.35L108.96-1.35L108.96-1.35Q109.58-1.18 110.45-1.18ZM128.42-13.33L128.42-12.84L123.04-7.24L128.90-0.44L128.90 0L127.12 0L121.84-6.23L120.52-4.92L120.52 0L118.81 0L118.81-13.33L120.52-13.33L120.52-6.87L126.70-13.33L128.42-13.33Z" fill="#21292e"></path></g></g><style>text {
  font-size: 64px;
  font-family: Arial Black;
  dominant-baseline: central;
  text-anchor: middle;
}</style></svg>